<svg xmlns="http://www.w3.org/2000/svg" xmlns:xlink="http://www.w3.org/1999/xlink" width="250" zoomAndPan="magnify" viewBox="0 0 187.5 44.999999" height="60" preserveAspectRatio="xMidYMid meet" version="1.0"><defs><g/><clipPath id="dbc4a7a947"><path d="M 46 0.0585938 L 184 0.0585938 L 184 44.9375 L 46 44.9375 Z M 46 0.0585938 " clip-rule="nonzero"/></clipPath><clipPath id="4a0ee89287"><rect x="0" width="138" y="0" height="45"/></clipPath><clipPath id="97e80b9674"><path d="M 7.53125 5.957031 L 40.445312 5.957031 L 40.445312 38.867188 L 7.53125 38.867188 Z M 7.53125 5.957031 " clip-rule="nonzero"/></clipPath></defs><g clip-path="url(#dbc4a7a947)"><g transform="matrix(1, 0, 0, 1, 46, 0.000000000000004656)"><g clip-path="url(#4a0ee89287)"><g fill="#ffffff" fill-opacity="1"><g transform="translate(0.431428, 32.393376)"><g><path d="M 16.5 -22.3125 L 16.5 -17.953125 L 7.40625 -17.953125 L 7.40625 -13.25 L 14.203125 -13.25 L 14.203125 -9.03125 L 7.40625 -9.03125 L 7.40625 0 L 1.96875 0 L 1.96875 -22.3125 Z M 16.5 -22.3125 "/></g></g></g><g fill="#ffffff" fill-opacity="1"><g transform="translate(17.807924, 32.393376)"><g><path d="M 16.5 -22.3125 L 16.5 -17.953125 L 7.40625 -17.953125 L 7.40625 -13.25 L 14.203125 -13.25 L 14.203125 -9.03125 L 7.40625 -9.03125 L 7.40625 0 L 1.96875 0 L 1.96875 -22.3125 Z M 16.5 -22.3125 "/></g></g></g><g fill="#ffffff" fill-opacity="1"><g transform="translate(35.184421, 32.393376)"><g/></g></g><g fill="#ffffff" fill-opacity="1"><g transform="translate(41.919001, 32.393376)"><g><path d="M 1.046875 -11.1875 C 1.046875 -13.394531 1.519531 -15.359375 2.46875 -17.078125 C 3.425781 -18.804688 4.757812 -20.148438 6.46875 -21.109375 C 8.175781 -22.078125 10.109375 -22.5625 12.265625 -22.5625 C 14.910156 -22.5625 17.175781 -21.863281 19.0625 -20.46875 C 20.945312 -19.070312 22.207031 -17.164062 22.84375 -14.75 L 16.875 -14.75 C 16.425781 -15.675781 15.796875 -16.382812 14.984375 -16.875 C 14.171875 -17.363281 13.242188 -17.609375 12.203125 -17.609375 C 10.523438 -17.609375 9.164062 -17.023438 8.125 -15.859375 C 7.09375 -14.691406 6.578125 -13.132812 6.578125 -11.1875 C 6.578125 -9.238281 7.09375 -7.679688 8.125 -6.515625 C 9.164062 -5.347656 10.523438 -4.765625 12.203125 -4.765625 C 13.242188 -4.765625 14.171875 -5.007812 14.984375 -5.5 C 15.796875 -5.988281 16.425781 -6.695312 16.875 -7.625 L 22.84375 -7.625 C 22.207031 -5.207031 20.945312 -3.304688 19.0625 -1.921875 C 17.175781 -0.535156 14.910156 0.15625 12.265625 0.15625 C 10.109375 0.15625 8.175781 -0.320312 6.46875 -1.28125 C 4.757812 -2.25 3.425781 -3.585938 2.46875 -5.296875 C 1.519531 -7.015625 1.046875 -8.976562 1.046875 -11.1875 Z M 1.046875 -11.1875 "/></g></g></g><g fill="#ffffff" fill-opacity="1"><g transform="translate(66.125381, 32.393376)"><g><path d="M 7.40625 -23.515625 L 7.40625 0 L 1.96875 0 L 1.96875 -23.515625 Z M 7.40625 -23.515625 "/></g></g></g><g fill="#ffffff" fill-opacity="1"><g transform="translate(75.496615, 32.393376)"><g><path d="M 0.890625 -8.90625 C 0.890625 -10.71875 1.234375 -12.3125 1.921875 -13.6875 C 2.609375 -15.070312 3.546875 -16.132812 4.734375 -16.875 C 5.921875 -17.613281 7.242188 -17.984375 8.703125 -17.984375 C 9.953125 -17.984375 11.046875 -17.726562 11.984375 -17.21875 C 12.929688 -16.71875 13.660156 -16.050781 14.171875 -15.21875 L 14.171875 -17.734375 L 19.609375 -17.734375 L 19.609375 0 L 14.171875 0 L 14.171875 -2.515625 C 13.640625 -1.679688 12.898438 -1.007812 11.953125 -0.5 C 11.015625 0 9.921875 0.25 8.671875 0.25 C 7.234375 0.25 5.921875 -0.125 4.734375 -0.875 C 3.546875 -1.625 2.609375 -2.691406 1.921875 -4.078125 C 1.234375 -5.472656 0.890625 -7.082031 0.890625 -8.90625 Z M 14.171875 -8.859375 C 14.171875 -10.222656 13.796875 -11.296875 13.046875 -12.078125 C 12.296875 -12.859375 11.378906 -13.25 10.296875 -13.25 C 9.210938 -13.25 8.296875 -12.863281 7.546875 -12.09375 C 6.796875 -11.320312 6.421875 -10.257812 6.421875 -8.90625 C 6.421875 -7.539062 6.796875 -6.460938 7.546875 -5.671875 C 8.296875 -4.878906 9.210938 -4.484375 10.296875 -4.484375 C 11.378906 -4.484375 12.296875 -4.875 13.046875 -5.65625 C 13.796875 -6.4375 14.171875 -7.503906 14.171875 -8.859375 Z M 14.171875 -8.859375 "/></g></g></g><g fill="#ffffff" fill-opacity="1"><g transform="translate(97.06634, 32.393376)"><g><path d="M 9.1875 0.25 C 7.632812 0.25 6.253906 -0.0078125 5.046875 -0.53125 C 3.835938 -1.0625 2.882812 -1.785156 2.1875 -2.703125 C 1.488281 -3.628906 1.097656 -4.664062 1.015625 -5.8125 L 6.390625 -5.8125 C 6.453125 -5.195312 6.738281 -4.695312 7.25 -4.3125 C 7.757812 -3.9375 8.382812 -3.75 9.125 -3.75 C 9.800781 -3.75 10.320312 -3.878906 10.6875 -4.140625 C 11.0625 -4.410156 11.25 -4.757812 11.25 -5.1875 C 11.25 -5.6875 10.984375 -6.054688 10.453125 -6.296875 C 9.921875 -6.546875 9.0625 -6.820312 7.875 -7.125 C 6.601562 -7.414062 5.546875 -7.722656 4.703125 -8.046875 C 3.859375 -8.378906 3.128906 -8.898438 2.515625 -9.609375 C 1.898438 -10.316406 1.59375 -11.273438 1.59375 -12.484375 C 1.59375 -13.503906 1.875 -14.429688 2.4375 -15.265625 C 3 -16.109375 3.820312 -16.769531 4.90625 -17.25 C 6 -17.738281 7.296875 -17.984375 8.796875 -17.984375 C 11.023438 -17.984375 12.78125 -17.429688 14.0625 -16.328125 C 15.34375 -15.234375 16.078125 -13.773438 16.265625 -11.953125 L 11.25 -11.953125 C 11.164062 -12.566406 10.894531 -13.050781 10.4375 -13.40625 C 9.976562 -13.769531 9.378906 -13.953125 8.640625 -13.953125 C 8.003906 -13.953125 7.515625 -13.828125 7.171875 -13.578125 C 6.835938 -13.335938 6.671875 -13.003906 6.671875 -12.578125 C 6.671875 -12.078125 6.941406 -11.695312 7.484375 -11.4375 C 8.023438 -11.1875 8.867188 -10.929688 10.015625 -10.671875 C 11.328125 -10.335938 12.394531 -10.003906 13.21875 -9.671875 C 14.039062 -9.347656 14.765625 -8.816406 15.390625 -8.078125 C 16.015625 -7.347656 16.34375 -6.375 16.375 -5.15625 C 16.375 -4.113281 16.082031 -3.179688 15.5 -2.359375 C 14.914062 -1.546875 14.078125 -0.90625 12.984375 -0.4375 C 11.890625 0.0195312 10.625 0.25 9.1875 0.25 Z M 9.1875 0.25 "/></g></g></g><g fill="#ffffff" fill-opacity="1"><g transform="translate(114.792267, 32.393376)"><g><path d="M 12.875 -17.921875 C 14.90625 -17.921875 16.535156 -17.25 17.765625 -15.90625 C 18.992188 -14.5625 19.609375 -12.710938 19.609375 -10.359375 L 19.609375 0 L 14.203125 0 L 14.203125 -9.625 C 14.203125 -10.8125 13.894531 -11.734375 13.28125 -12.390625 C 12.664062 -13.046875 11.84375 -13.375 10.8125 -13.375 C 9.769531 -13.375 8.941406 -13.046875 8.328125 -12.390625 C 7.710938 -11.734375 7.40625 -10.8125 7.40625 -9.625 L 7.40625 0 L 1.96875 0 L 1.96875 -23.515625 L 7.40625 -23.515625 L 7.40625 -15.34375 C 7.957031 -16.132812 8.707031 -16.757812 9.65625 -17.21875 C 10.613281 -17.6875 11.6875 -17.921875 12.875 -17.921875 Z M 12.875 -17.921875 "/></g></g></g></g></g></g><g clip-path="url(#97e80b9674)"><path fill="#ff8500" d="M 24.070312 5.957031 C 14.9375 5.957031 7.53125 13.363281 7.53125 22.496094 C 7.53125 31.628906 14.9375 39.03125 24.070312 39.03125 C 33.203125 39.03125 40.609375 31.628906 40.609375 22.496094 C 40.609375 13.363281 33.203125 5.957031 24.070312 5.957031 Z M 32.230469 20.6875 C 31.929688 21.039062 31.171875 21.878906 31.050781 22.773438 C 30.925781 23.667969 30.792969 24.425781 30.875 25.738281 C 30.957031 27.054688 30.886719 28.40625 29.832031 30.140625 C 28.773438 31.875 27.027344 32.527344 26 32.835938 C 24.96875 33.148438 24.726562 32.972656 25.117188 32.578125 C 25.511719 32.1875 26.296875 31.089844 26.867188 29.300781 C 27.433594 27.511719 27.109375 26.199219 26.90625 25.101562 C 26.703125 24.007812 26.027344 22.960938 25.496094 22.246094 C 24.96875 21.527344 24.441406 20.984375 24.292969 20.851562 C 24.144531 20.714844 23.585938 20.402344 23.914062 20.929688 C 24.238281 21.457031 24.46875 22.027344 24.496094 22.894531 C 24.523438 23.761719 24.683594 24.683594 23.289062 26.039062 C 21.894531 27.390625 21.097656 27.824219 20.160156 28.910156 C 19.226562 29.992188 18.847656 30.671875 18.726562 30.875 C 18.605469 31.078125 18.453125 31.28125 18.386719 31.089844 C 18.386719 31.089844 15.988281 28.976562 15.828125 26.417969 C 15.664062 23.855469 17.167969 22.191406 17.859375 21.378906 C 18.550781 20.566406 20.664062 18.289062 19.078125 16.015625 C 19.078125 16.015625 21.433594 16.542969 21.027344 20.769531 C 21.027344 20.769531 24.929688 17.558594 19.847656 11.992188 C 19.847656 11.992188 25.660156 12.398438 27.8125 17.558594 C 27.8125 17.558594 28.789062 19.589844 28.542969 21.253906 C 28.542969 21.253906 28.515625 22.269531 28.449219 22.851562 C 28.382812 23.4375 28.285156 23.949219 28.582031 23.488281 C 28.882812 23.03125 29.046875 22.3125 30.15625 21.390625 C 31.265625 20.46875 31.605469 20.535156 31.835938 20.453125 C 32.066406 20.375 32.527344 20.335938 32.230469 20.6875 Z M 32.230469 20.6875 " fill-opacity="1" fill-rule="nonzero"/></g></svg>